<?xml version="1.0" encoding="UTF-8" standalone="no"?>
<!DOCTYPE svg PUBLIC "-//W3C//DTD SVG 1.0//EN" "http://www.w3.org/TR/2001/PR-SVG-20010719/DTD/svg10.dtd">
<svg width="27cm" height="17cm" viewBox="162 71 539 323" xmlns="http://www.w3.org/2000/svg" xmlns:xlink="http://www.w3.org/1999/xlink">
  <g>
    <rect style="fill: #ffffff" x="497" y="357" width="83.35" height="36" rx="10" ry="10"/>
    <rect style="fill: none; fill-opacity:0; stroke-width: 2; stroke: #000000" x="497" y="357" width="83.35" height="36" rx="10" ry="10"/>
    <text style="fill: #000000;text-anchor:middle;font-size:12.7998;font-family:sanserif;font-style:normal;font-weight:normal" x="538.675" y="378.9">
      <tspan x="538.675" y="378.9">example1</tspan>
    </text>
  </g>
  <g>
    <rect style="fill: #ffffff" x="499" y="197" width="80" height="36" rx="10" ry="10"/>
    <rect style="fill: none; fill-opacity:0; stroke-width: 2; stroke: #000000" x="499" y="197" width="80" height="36" rx="10" ry="10"/>
    <text style="fill: #000000;text-anchor:middle;font-size:12.7998;font-family:sanserif;font-style:normal;font-weight:normal" x="539" y="218.9">
      <tspan x="539" y="218.9">prr</tspan>
    </text>
  </g>
  <g>
    <rect style="fill: #ffffff" x="499" y="116" width="80" height="36" rx="10" ry="10"/>
    <rect style="fill: none; fill-opacity:0; stroke-width: 2; stroke: #000000" x="499" y="116" width="80" height="36" rx="10" ry="10"/>
    <text style="fill: #000000;text-anchor:middle;font-size:12.7998;font-family:sanserif;font-style:normal;font-weight:normal" x="539" y="137.9">
      <tspan x="539" y="137.9">ocl</tspan>
    </text>
  </g>
  <g>
    <rect style="fill: #ffffff" x="620" y="162" width="80" height="36" rx="10" ry="10"/>
    <rect style="fill: none; fill-opacity:0; stroke-width: 2; stroke: #000000" x="620" y="162" width="80" height="36" rx="10" ry="10"/>
    <text style="fill: #000000;text-anchor:middle;font-size:12.7998;font-family:sanserif;font-style:normal;font-weight:normal" x="660" y="183.9">
      <tspan x="660" y="183.9">ops</tspan>
    </text>
  </g>
  <g>
    <rect style="fill: #ffffff" x="621" y="72" width="80" height="36" rx="10" ry="10"/>
    <rect style="fill: none; fill-opacity:0; stroke-width: 2; stroke: #000000" x="621" y="72" width="80" height="36" rx="10" ry="10"/>
    <text style="fill: #000000;text-anchor:middle;font-size:12.7998;font-family:sanserif;font-style:normal;font-weight:normal" x="661" y="93.9">
      <tspan x="661" y="93.9">lmm</tspan>
    </text>
  </g>
  <g>
    <rect style="fill: #ffffff" x="358" y="197" width="80" height="36" rx="10" ry="10"/>
    <rect style="fill: none; fill-opacity:0; stroke-width: 2; stroke: #000000" x="358" y="197" width="80" height="36" rx="10" ry="10"/>
    <text style="fill: #000000;text-anchor:middle;font-size:12.7998;font-family:sanserif;font-style:normal;font-weight:normal" x="398" y="218.9">
      <tspan x="398" y="218.9">sharp</tspan>
    </text>
  </g>
  <g>
    <rect style="fill: #ffffff" x="164" y="256" width="80" height="36" rx="10" ry="10"/>
    <rect style="fill: none; fill-opacity:0; stroke-width: 2; stroke: #000000" x="164" y="256" width="80" height="36" rx="10" ry="10"/>
    <text style="fill: #000000;text-anchor:middle;font-size:12.7998;font-family:sanserif;font-style:normal;font-weight:normal" x="204" y="277.9">
      <tspan x="204" y="277.9">nqf</tspan>
    </text>
  </g>
  <g>
    <rect style="fill: #ffffff" x="164" y="197" width="80" height="36" rx="10" ry="10"/>
    <rect style="fill: none; fill-opacity:0; stroke-width: 2; stroke: #000000" x="164" y="197" width="80" height="36" rx="10" ry="10"/>
    <text style="fill: #000000;text-anchor:middle;font-size:12.7998;font-family:sanserif;font-style:normal;font-weight:normal" x="204" y="218.9">
      <tspan x="204" y="218.9">vmr</tspan>
    </text>
  </g>
  <g>
    <polyline style="fill: none; fill-opacity:0; stroke-width: 2; stroke: #000000" points="262.236,215 356.995,215 356.995,215 "/>
    <polygon style="fill: #ffffff" points="262.236,207 246.236,215 262.236,223 "/>
    <polygon style="fill: none; fill-opacity:0; stroke-width: 2; stroke: #000000" points="262.236,207 246.236,215 262.236,223 "/>
  </g>
  <g>
    <polyline style="fill: none; fill-opacity:0; stroke-width: 2; stroke: #000000" points="263.242,274 397,274 397,233 398,233 "/>
    <polygon style="fill: #ffffff" points="263.242,266 247.242,274 263.242,282 "/>
    <polygon style="fill: none; fill-opacity:0; stroke-width: 2; stroke: #000000" points="263.242,266 247.242,274 263.242,282 "/>
  </g>
  <g>
    <rect style="fill: #ffffff" x="597" y="256" width="80" height="36" rx="10" ry="10"/>
    <rect style="fill: none; fill-opacity:0; stroke-width: 2; stroke: #000000" x="597" y="256" width="80" height="36" rx="10" ry="10"/>
    <text style="fill: #000000;text-anchor:middle;font-size:12.7998;font-family:sanserif;font-style:normal;font-weight:normal" x="637" y="277.9">
      <tspan x="637" y="277.9">hed</tspan>
    </text>
  </g>
  <g>
    <polyline style="fill: none; fill-opacity:0; stroke-width: 2; stroke: #000000" points="479.759,215 439.005,215 439.005,215 "/>
    <polygon style="fill: #ffffff" points="479.759,223 495.759,215 479.759,207 "/>
    <polygon style="fill: none; fill-opacity:0; stroke-width: 2; stroke: #000000" points="479.759,223 495.759,215 479.759,207 "/>
  </g>
  <g>
    <polyline style="fill: none; fill-opacity:0; stroke-width: 2; stroke: #000000" points="578.764,274 423,274 423,233 398,233 "/>
    <polygon style="fill: #ffffff" points="578.764,282 594.764,274 578.764,266 "/>
    <polygon style="fill: none; fill-opacity:0; stroke-width: 2; stroke: #000000" points="578.764,282 594.764,274 578.764,266 "/>
  </g>
  <g>
    <polyline style="fill: none; fill-opacity:0; stroke-width: 2; stroke: #000000" points="539,171.245 539,195.991 539,195.991 "/>
    <polygon style="fill: #ffffff" points="547,171.245 539,155.245 531,171.245 "/>
    <polygon style="fill: none; fill-opacity:0; stroke-width: 2; stroke: #000000" points="547,171.245 539,155.245 531,171.245 "/>
  </g>
  <g>
    <polyline style="fill: none; fill-opacity:0; stroke-width: 2; stroke: #000000" points="660,217.245 660,227 637,227 637,254.991 "/>
    <polygon style="fill: #ffffff" points="668,217.245 660,201.245 652,217.245 "/>
    <polygon style="fill: none; fill-opacity:0; stroke-width: 2; stroke: #000000" points="668,217.245 660,201.245 652,217.245 "/>
  </g>
  <g>
    <polyline style="fill: none; fill-opacity:0; stroke-width: 2; stroke: #000000" points="600.759,180 599.5,180 599.5,134 580.005,134 "/>
    <polygon style="fill: #ffffff" points="600.759,188 616.759,180 600.759,172 "/>
    <polygon style="fill: none; fill-opacity:0; stroke-width: 2; stroke: #000000" points="600.759,188 616.759,180 600.759,172 "/>
  </g>
  <g>
    <polyline style="fill: none; fill-opacity:0; stroke-width: 2; stroke: #000000" points="661,127.245 661,135 660,135 660,160.991 "/>
    <polygon style="fill: #ffffff" points="669,127.245 661,111.245 653,127.245 "/>
    <polygon style="fill: none; fill-opacity:0; stroke-width: 2; stroke: #000000" points="669,127.245 661,111.245 653,127.245 "/>
  </g>
  <g>
    <polyline style="fill: none; fill-opacity:0; stroke-width: 2; stroke: #000000" points="601.759,90 600,90 600,134 580.005,134 "/>
    <polygon style="fill: #ffffff" points="601.759,98 617.759,90 601.759,82 "/>
    <polygon style="fill: none; fill-opacity:0; stroke-width: 2; stroke: #000000" points="601.759,98 617.759,90 601.759,82 "/>
  </g>
  <g>
    <polyline style="fill: none; fill-opacity:0; stroke-width: 2; stroke-dasharray: 8; stroke: #000000" points="539,252.245 539,295 538.675,295 538.675,355.991 "/>
    <polygon style="fill: #ffffff" points="547,252.245 539,236.245 531,252.245 "/>
    <polygon style="fill: none; fill-opacity:0; stroke-width: 2; stroke: #000000" points="547,252.245 539,236.245 531,252.245 "/>
  </g>
</svg>
